<mxfile host="app.diagrams.net" modified="2022-08-09T03:12:49.967Z" agent="5.0 (X11; Linux x86_64) AppleWebKit/537.36 (KHTML, like Gecko) Chrome/101.0.9999.0 Safari/537.36" etag="Z12ueCKRKYVgp2FDqdex" version="20.2.3" type="github">
  <diagram id="heJEFpJdNTQhjkXe8Y5q" name="第 1 页">
    <mxGraphModel dx="752" dy="485" grid="1" gridSize="10" guides="1" tooltips="1" connect="1" arrows="1" fold="1" page="1" pageScale="1" pageWidth="1e+53" pageHeight="1e+53" math="0" shadow="0">
      <root>
        <mxCell id="0" />
        <mxCell id="1" parent="0" />
      </root>
    </mxGraphModel>
  </diagram>
</mxfile>
